{
  "accessors": [
    {
      "bufferView": 2,
      "componentType": 5126,
      "count": 65532,
      "max": [
        2.4238579273223877,
        -253.0175323486328,
        6.344851016998291
      ],
      "min": [
        -2.5525190830230713,
        -259.10369873046875,
        0.12739799916744232
      ],
      "type": "VEC3"
    },
    {
      "bufferView": 2,
      "byteOffset": 786384,
      "componentType": 5126,
      "count": 65532,
      "max": [
        0.9999993443489075,
        0.9999551177024841,
        0.999946117401123
      ],
      "min": [
        -0.9999886155128479,
        -0.9999776482582092,
        -0.9999584555625916
      ],
      "type": "VEC3"
    },
    {
      "bufferView": 1,
      "componentType": 5126,
      "count": 65532,
      "max": [
        0.9980469942092896,
        0.9973120093345642
      ],
      "min": [
        0.0014649999793618917,
        0.010753000155091286
      ],
      "type": "VEC2"
    },
    {
      "bufferView": 0,
      "componentType": 5125,
      "count": 354489,
      "type": "SCALAR"
    },
    {
      "bufferView": 2,
      "byteOffset": 1572768,
      "componentType": 5126,
      "count": 65532,
      "max": [
        2.4264590740203857,
        -255.47850036621094,
        6.768558025360107
      ],
      "min": [
        -2.9727001190185547,
        -257.3587951660156,
        -0.22843100130558014
      ],
      "type": "VEC3"
    },
    {
      "bufferView": 2,
      "byteOffset": 2359152,
      "componentType": 5126,
      "count": 65532,
      "max": [
        0.9999895095825195,
        0.9999863505363464,
        0.9976507425308228
      ],
      "min": [
        -0.9999780058860779,
        -0.9999554753303528,
        -0.9999901056289673
      ],
      "type": "VEC3"
    },
    {
      "bufferView": 1,
      "byteOffset": 524256,
      "componentType": 5126,
      "count": 65532,
      "max": [
        0.9985349774360657,
        0.9943789839744568
      ],
      "min": [
        0.0014649999793618917,
        0.0014659999869763851
      ],
      "type": "VEC2"
    },
    {
      "bufferView": 0,
      "byteOffset": 1417956,
      "componentType": 5125,
      "count": 359700,
      "type": "SCALAR"
    },
    {
      "bufferView": 2,
      "byteOffset": 3145536,
      "componentType": 5126,
      "count": 65532,
      "max": [
        2.1986629962921143,
        -253.64340209960938,
        5.30944299697876
      ],
      "min": [
        -2.9763550758361816,
        -258.96832275390625,
        0.3198150098323822
      ],
      "type": "VEC3"
    },
    {
      "bufferView": 2,
      "byteOffset": 3931920,
      "componentType": 5126,
      "count": 65532,
      "max": [
        0.9999927878379822,
        0.999730110168457,
        0.9999752640724182
      ],
      "min": [
        -0.9999855756759644,
        -0.9999767541885376,
        -0.9999979734420776
      ],
      "type": "VEC3"
    },
    {
      "bufferView": 1,
      "byteOffset": 1048512,
      "componentType": 5126,
      "count": 65532,
      "max": [
        0.9985349774360657,
        0.9985340237617493
      ],
      "min": [
        0.002196999965235591,
        0.0014659999869763851
      ],
      "type": "VEC2"
    },
    {
      "bufferView": 0,
      "byteOffset": 2856756,
      "componentType": 5125,
      "count": 350415,
      "type": "SCALAR"
    },
    {
      "bufferView": 2,
      "byteOffset": 4718304,
      "componentType": 5126,
      "count": 65532,
      "max": [
        1.3251019716262817,
        -253.63540649414063,
        5.308944225311279
      ],
      "min": [
        -1.1898349523544312,
        -259.1675109863281,
        -0.07587199658155441
      ],
      "type": "VEC3"
    },
    {
      "bufferView": 2,
      "byteOffset": 5504688,
      "componentType": 5126,
      "count": 65532,
      "max": [
        1.0,
        0.9999663829803467,
        0.9999752640724182
      ],
      "min": [
        -0.9999516606330872,
        -0.9999998807907104,
        -0.9999984502792358
      ],
      "type": "VEC3"
    },
    {
      "bufferView": 1,
      "byteOffset": 1572768,
      "componentType": 5126,
      "count": 65532,
      "max": [
        0.9985349774360657,
        0.9936460256576538
      ],
      "min": [
        0.004883000161498785,
        0.0014659999869763851
      ],
      "type": "VEC2"
    },
    {
      "bufferView": 0,
      "byteOffset": 4258416,
      "componentType": 5125,
      "count": 356523,
      "type": "SCALAR"
    },
    {
      "bufferView": 2,
      "byteOffset": 6291072,
      "componentType": 5126,
      "count": 65532,
      "max": [
        0.6993849873542786,
        -253.6184539794922,
        5.302641868591309
      ],
      "min": [
        -2.9964520931243896,
        -258.46722412109375,
        -0.11794999986886978
      ],
      "type": "VEC3"
    },
    {
      "bufferView": 2,
      "byteOffset": 7077456,
      "componentType": 5126,
      "count": 65532,
      "max": [
        0.9991812109947205,
        0.9997774958610535,
        0.9995763301849365
      ],
      "min": [
        -0.9999949932098389,
        -0.9999811053276062,
        -0.9999964833259583
      ],
      "type": "VEC3"
    },
    {
      "bufferView": 1,
      "byteOffset": 2097024,
      "componentType": 5126,
      "count": 65532,
      "max": [
        0.998291015625,
        0.9970669746398926
      ],
      "min": [
        0.0014649999793618917,
        0.0014659999869763851
      ],
      "type": "VEC2"
    },
    {
      "bufferView": 0,
      "byteOffset": 5684508,
      "componentType": 5125,
      "count": 355758,
      "type": "SCALAR"
    },
    {
      "bufferView": 2,
      "byteOffset": 7863840,
      "componentType": 5126,
      "count": 65532,
      "max": [
        0.6831560134887695,
        -252.50567626953125,
        6.456669807434082
      ],
      "min": [
        -2.5045220851898193,
        -259.0285949707031,
        1.5740059614181519
      ],
      "type": "VEC3"
    },
    {
      "bufferView": 2,
      "byteOffset": 8650224,
      "componentType": 5126,
      "count": 65532,
      "max": [
        0.9999879002571106,
        0.999997615814209,
        0.9994171261787415
      ],
      "min": [
        -0.9999996423721313,
        -0.999984622001648,
        -0.9582499861717224
      ],
      "type": "VEC3"
    },
    {
      "bufferView": 1,
      "byteOffset": 2621280,
      "componentType": 5126,
      "count": 65532,
      "max": [
        0.9985349774360657,
        0.989736020565033
      ],
      "min": [
        0.0014649999793618917,
        0.0014659999869763851
      ],
      "type": "VEC2"
    },
    {
      "bufferView": 0,
      "byteOffset": 7107540,
      "componentType": 5125,
      "count": 357669,
      "type": "SCALAR"
    },
    {
      "bufferView": 2,
      "byteOffset": 9436608,
      "componentType": 5126,
      "count": 65532,
      "max": [
        0.7108169794082642,
        -251.8990478515625,
        6.562893867492676
      ],
      "min": [
        -2.9936649799346924,
        -258.873779296875,
        1.5839070081710815
      ],
      "type": "VEC3"
    },
    {
      "bufferView": 2,
      "byteOffset": 10222992,
      "componentType": 5126,
      "count": 65532,
      "max": [
        0.9999935030937195,
        0.9999783635139465,
        0.9993613362312317
      ],
      "min": [
        -0.9999812245368958,
        -0.9999953508377075,
        -0.9601332545280457
      ],
      "type": "VEC3"
    },
    {
      "bufferView": 1,
      "byteOffset": 3145536,
      "componentType": 5126,
      "count": 65532,
      "max": [
        0.9985349774360657,
        0.9958459734916687
      ],
      "min": [
        0.0014649999793618917,
        0.0014659999869763851
      ],
      "type": "VEC2"
    },
    {
      "bufferView": 0,
      "byteOffset": 8538216,
      "componentType": 5125,
      "count": 350466,
      "type": "SCALAR"
    },
    {
      "bufferView": 2,
      "byteOffset": 11009376,
      "componentType": 5126,
      "count": 65532,
      "max": [
        1.0628169775009155,
        -252.54043579101563,
        3.4649569988250732
      ],
      "min": [
        -2.9326460361480713,
        -258.4002685546875,
        -0.1575939953327179
      ],
      "type": "VEC3"
    },
    {
      "bufferView": 2,
      "byteOffset": 11795760,
      "componentType": 5126,
      "count": 65532,
      "max": [
        0.9999997615814209,
        0.9969393610954285,
        0.9387078881263733
      ],
      "min": [
        -0.9999892115592957,
        -0.9994816184043884,
        -0.9999616146087646
      ],
      "type": "VEC3"
    },
    {
      "bufferView": 1,
      "byteOffset": 3669792,
      "componentType": 5126,
      "count": 65532,
      "max": [
        0.9985349774360657,
        0.9934020042419434
      ],
      "min": [
        0.0014649999793618917,
        0.0014659999869763851
      ],
      "type": "VEC2"
    },
    {
      "bufferView": 0,
      "byteOffset": 9940080,
      "componentType": 5125,
      "count": 364677,
      "type": "SCALAR"
    },
    {
      "bufferView": 2,
      "byteOffset": 12582144,
      "componentType": 5126,
      "count": 53363,
      "max": [
        2.1511430740356445,
        -251.83424377441406,
        5.765657901763916
      ],
      "min": [
        -2.924022912979126,
        -256.96630859375,
        0.06901700049638748
      ],
      "type": "VEC3"
    },
    {
      "bufferView": 2,
      "byteOffset": 13222500,
      "componentType": 5126,
      "count": 53363,
      "max": [
        0.9999901056289673,
        0.9999767541885376,
        0.9970536231994629
      ],
      "min": [
        -0.9999859929084778,
        -0.9681204557418823,
        -0.9998238682746887
      ],
      "type": "VEC3"
    },
    {
      "bufferView": 1,
      "byteOffset": 4194048,
      "componentType": 5126,
      "count": 53363,
      "max": [
        0.9985349774360657,
        0.992913007736206
      ],
      "min": [
        0.0014649999793618917,
        0.0058650001883506775
      ],
      "type": "VEC2"
    },
    {
      "bufferView": 0,
      "byteOffset": 11398788,
      "componentType": 5125,
      "count": 294699,
      "type": "SCALAR"
    }
  ],
  "asset": {
    "extras": {
      "author": "YuhanJi (https://sketchfab.com/YuhanJi)",
      "license": "CC-BY-4.0 (http://creativecommons.org/licenses/by/4.0/)",
      "source": "https://sketchfab.com/3d-models/stitch-1-4-a1d1cbb7b57945ec961814bea46dea1e",
      "title": "stitch-1-4"
    },
    "generator": "Sketchfab-12.67.0",
    "version": "2.0"
  },
  "bufferViews": [
    {
      "buffer": 0,
      "byteLength": 12577584,
      "name": "floatBufferViews",
      "target": 34963
    },
    {
      "buffer": 0,
      "byteLength": 4620952,
      "byteOffset": 12577584,
      "byteStride": 8,
      "name": "floatBufferViews",
      "target": 34962
    },
    {
      "buffer": 0,
      "byteLength": 13862856,
      "byteOffset": 17198536,
      "byteStride": 12,
      "name": "floatBufferViews",
      "target": 34962
    }
  ],
  "buffers": [
    {
      "byteLength": 31061392,
      "uri": "scene.bin"
    }
  ],
  "images": [
    {
      "uri": "textures/Material_0_baseColor.jpeg"
    }
  ],
  "materials": [
    {
      "doubleSided": true,
      "name": "Material_0",
      "pbrMetallicRoughness": {
        "baseColorTexture": {
          "index": 0
        },
        "metallicFactor": 0.0
      }
    }
  ],
  "meshes": [
    {
      "name": "Object_0",
      "primitives": [
        {
          "attributes": {
            "NORMAL": 1,
            "POSITION": 0,
            "TEXCOORD_0": 2
          },
          "indices": 3,
          "material": 0,
          "mode": 4
        }
      ]
    },
    {
      "name": "Object_1",
      "primitives": [
        {
          "attributes": {
            "NORMAL": 5,
            "POSITION": 4,
            "TEXCOORD_0": 6
          },
          "indices": 7,
          "material": 0,
          "mode": 4
        }
      ]
    },
    {
      "name": "Object_2",
      "primitives": [
        {
          "attributes": {
            "NORMAL": 9,
            "POSITION": 8,
            "TEXCOORD_0": 10
          },
          "indices": 11,
          "material": 0,
          "mode": 4
        }
      ]
    },
    {
      "name": "Object_3",
      "primitives": [
        {
          "attributes": {
            "NORMAL": 13,
            "POSITION": 12,
            "TEXCOORD_0": 14
          },
          "indices": 15,
          "material": 0,
          "mode": 4
        }
      ]
    },
    {
      "name": "Object_4",
      "primitives": [
        {
          "attributes": {
            "NORMAL": 17,
            "POSITION": 16,
            "TEXCOORD_0": 18
          },
          "indices": 19,
          "material": 0,
          "mode": 4
        }
      ]
    },
    {
      "name": "Object_5",
      "primitives": [
        {
          "attributes": {
            "NORMAL": 21,
            "POSITION": 20,
            "TEXCOORD_0": 22
          },
          "indices": 23,
          "material": 0,
          "mode": 4
        }
      ]
    },
    {
      "name": "Object_6",
      "primitives": [
        {
          "attributes": {
            "NORMAL": 25,
            "POSITION": 24,
            "TEXCOORD_0": 26
          },
          "indices": 27,
          "material": 0,
          "mode": 4
        }
      ]
    },
    {
      "name": "Object_7",
      "primitives": [
        {
          "attributes": {
            "NORMAL": 29,
            "POSITION": 28,
            "TEXCOORD_0": 30
          },
          "indices": 31,
          "material": 0,
          "mode": 4
        }
      ]
    },
    {
      "name": "Object_8",
      "primitives": [
        {
          "attributes": {
            "NORMAL": 33,
            "POSITION": 32,
            "TEXCOORD_0": 34
          },
          "indices": 35,
          "material": 0,
          "mode": 4
        }
      ]
    }
  ],
  "nodes": [
    {
      "children": [
        1
      ],
      "matrix": [
        -0.9999893307685852,
        0.004623775836080313,
        1.1719719129058256e-15,
        0.0,
        9.323497351942933e-08,
        2.016403414040191e-05,
        -1.0,
        0.0,
        -0.004623775836080313,
        -0.9999893307685852,
        -2.0164250600140928e-05,
        0.0,
        -0.5548473000526428,
        6.546568393707275,
        6.599038897693234e-05,
        1.0
      ],
      "name": "Sketchfab_model"
    },
    {
      "children": [
        2,
        3,
        4,
        5,
        6,
        7,
        8,
        9,
        10
      ],
      "name": "stitch-1.obj.cleaner.materialmerger.gles"
    },
    {
      "mesh": 0,
      "name": "Object_2"
    },
    {
      "mesh": 1,
      "name": "Object_3"
    },
    {
      "mesh": 2,
      "name": "Object_4"
    },
    {
      "mesh": 3,
      "name": "Object_5"
    },
    {
      "mesh": 4,
      "name": "Object_6"
    },
    {
      "mesh": 5,
      "name": "Object_7"
    },
    {
      "mesh": 6,
      "name": "Object_8"
    },
    {
      "mesh": 7,
      "name": "Object_9"
    },
    {
      "mesh": 8,
      "name": "Object_10"
    }
  ],
  "samplers": [
    {
      "magFilter": 9729,
      "minFilter": 9987,
      "wrapS": 10497,
      "wrapT": 10497
    }
  ],
  "scene": 0,
  "scenes": [
    {
      "name": "Sketchfab_Scene",
      "nodes": [
        0
      ]
    }
  ],
  "textures": [
    {
      "sampler": 0,
      "source": 0
    }
  ]
}
